<?xml version="1.0" standalone="no"?>
<!DOCTYPE svg PUBLIC "-//W3C//DTD SVG 20010904//EN"
 "http://www.w3.org/TR/2001/REC-SVG-20010904/DTD/svg10.dtd">
<svg version="1.0" xmlns="http://www.w3.org/2000/svg"
 width="512.000000pt" height="512.000000pt" viewBox="0 0 512.000000 512.000000"
 preserveAspectRatio="xMidYMid meet">
<metadata>
Created by potrace 1.16, written by Peter Selinger 2001-2019
</metadata>
<g transform="translate(0.000000,512.000000) scale(0.100000,-0.100000)"
fill="#000000" stroke="none">
<path d="M4235 4161 c-27 -10 -817 -314 -1755 -676 -1019 -393 -1726 -671
-1756 -690 -65 -42 -84 -69 -84 -120 0 -45 19 -70 75 -97 32 -16 917 -298 934
-298 6 0 462 285 1013 634 552 348 1018 641 1036 650 39 20 88 24 104 8 7 -7
-1 -22 -28 -50 -22 -22 -381 -347 -799 -722 -418 -376 -777 -699 -797 -719
l-37 -36 -25 -390 c-14 -214 -28 -418 -32 -452 l-6 -63 32 0 c17 0 46 6 64 14
19 8 140 117 270 243 131 125 240 229 244 230 4 2 203 -142 443 -320 239 -177
452 -330 473 -340 117 -55 229 -15 271 97 23 62 615 2863 615 2910 0 123 -74
207 -180 206 -14 -1 -47 -9 -75 -19z"/>
</g>
</svg>
