<?xml version="1.0" encoding="utf-8"?>
<!-- Svg Vector Icons : http://www.onlinewebfonts.com/icon -->
<!DOCTYPE svg PUBLIC "-//W3C//DTD SVG 1.1//EN" "http://www.w3.org/Graphics/SVG/1.1/DTD/svg11.dtd">
<svg version="1.1" xmlns="http://www.w3.org/2000/svg" xmlns:xlink="http://www.w3.org/1999/xlink" x="0px" y="0px" viewBox="0 0 1000 1000" enable-background="new 0 0 1000 1000" xml:space="preserve">
<metadata> Svg Vector Icons : http://www.onlinewebfonts.com/icon </metadata>
<g><path d="M990,500c0-270.6-219.4-490-490-490C229.4,10,10,229.4,10,500c0,270.6,219.4,490,490,490C770.6,990,990,770.6,990,500z M86.6,500C86.6,271.7,271.7,86.6,500,86.6c228.3,0,413.4,185.1,413.4,413.4c0,228.3-185.1,413.4-413.4,413.4C271.7,913.4,86.6,728.3,86.6,500z"/><path d="M438.7,714.4h122.5V745H438.7L438.7,714.4L438.7,714.4z"/><path d="M438.7,653.1h122.5v30.6H438.7L438.7,653.1L438.7,653.1z"/><path d="M438.7,591.9h122.5v30.6H438.7L438.7,591.9L438.7,591.9z"/><path d="M622.5,377.5L500,255L377.5,377.5h61.2V500h122.5V377.5H622.5z"/><path d="M438.7,530.6h122.5v30.6H438.7L438.7,530.6L438.7,530.6z"/></g>
</svg>