<svg xmlns="http://www.w3.org/2000/svg" xmlns:xlink="http://www.w3.org/1999/xlink" version="1.1" enable-background="new 0 0 1000 1000" xml:space="preserve" width="1000" height="1000"><rect id="backgroundrect" width="100%" height="100%" x="0" y="0" fill="none" stroke="none"/>
<metadata> Svg Vector Icons : http://www.onlinewebfonts.com/icon </metadata>

<g class="currentLayer" style=""><title>Layer 1</title><g id="svg_1" class="selected" fill="#dadada" fill-opacity="1"><path d="M990,500c0-270.6-219.4-490-490-490C229.4,10,10,229.4,10,500c0,270.6,219.4,490,490,490C770.6,990,990,770.6,990,500z M86.6,500C86.6,271.7,271.7,86.6,500,86.6c228.3,0,413.4,185.1,413.4,413.4c0,228.3-185.1,413.4-413.4,413.4C271.7,913.4,86.6,728.3,86.6,500z" id="svg_2" fill="#dadada" fill-opacity="1"/><path d="M438.7,714.4h122.5V745H438.7L438.7,714.4L438.7,714.4z" id="svg_3" fill="#dadada" fill-opacity="1"/><path d="M438.7,653.1h122.5v30.6H438.7L438.7,653.1L438.7,653.1z" id="svg_4" fill="#dadada" fill-opacity="1"/><path d="M438.7,591.9h122.5v30.6H438.7L438.7,591.9L438.7,591.9z" id="svg_5" fill="#dadada" fill-opacity="1"/><path d="M622.5,377.5L500,255L377.5,377.5h61.2V500h122.5V377.5H622.5z" id="svg_6" fill="#dadada" fill-opacity="1"/><path d="M438.7,530.6h122.5v30.6H438.7L438.7,530.6L438.7,530.6z" id="svg_7" fill="#dadada" fill-opacity="1"/></g></g></svg>